<svg width="48" height="48" viewBox="0 0 48 48" fill="none" xmlns="http://www.w3.org/2000/svg">
<path d="M32 8C32.5304 8 33.0391 8.21071 33.4142 8.58579C33.7893 8.96086 34 9.46957 34 10V18.4L44.426 11.1C44.5759 10.9949 44.7518 10.933 44.9345 10.921C45.1172 10.909 45.2997 10.9474 45.462 11.032C45.6244 11.1166 45.7604 11.2441 45.8553 11.4007C45.9502 11.5573 46.0002 11.7369 46 11.92V36.08C46.0002 36.2631 45.9502 36.4427 45.8553 36.5993C45.7604 36.7559 45.6244 36.8834 45.462 36.968C45.2997 37.0526 45.1172 37.091 44.9345 37.079C44.7518 37.067 44.5759 37.0051 44.426 36.9L34 29.6V38C34 38.5304 33.7893 39.0391 33.4142 39.4142C33.0391 39.7893 32.5304 40 32 40H4C3.46957 40 2.96086 39.7893 2.58579 39.4142C2.21071 39.0391 2 38.5304 2 38V10C2 9.46957 2.21071 8.96086 2.58579 8.58579C2.96086 8.21071 3.46957 8 4 8H32ZM30 12H6V36H30V12ZM18 16L26 24H20V32H16V24H10L18 16ZM42 17.682L34 23.282V24.718L42 30.318V17.682Z" fill="#9BCDD2"/>
</svg>
