<svg width="60" height="60" viewBox="0 0 60 60" fill="none" xmlns="http://www.w3.org/2000/svg">
<path d="M43.1875 50.625L51.875 42L49.25 39.375L43.1875 45.3125L40.75 42.875L38.125 45.5625L43.1875 50.625ZM15 22.5H45V17.5H15V22.5ZM45 57.5C41.5417 57.5 38.5933 56.2808 36.155 53.8425C33.7167 51.4042 32.4983 48.4567 32.5 45C32.5 41.5417 33.7192 38.5933 36.1575 36.155C38.5958 33.7167 41.5433 32.4983 45 32.5C48.4583 32.5 51.4067 33.7192 53.845 36.1575C56.2833 38.5958 57.5017 41.5433 57.5 45C57.5 48.4583 56.2808 51.4067 53.8425 53.845C51.4042 56.2833 48.4567 57.5017 45 57.5ZM7.5 55V12.5C7.5 11.125 7.99 9.9475 8.97 8.9675C9.95 7.9875 11.1267 7.49834 12.5 7.5H47.5C48.875 7.5 50.0525 7.99 51.0325 8.97C52.0125 9.95 52.5017 11.1267 52.5 12.5V29.1875C51.7083 28.8125 50.8958 28.5 50.0625 28.25C49.2292 28 48.375 27.8125 47.5 27.6875V12.5H12.5V47.625H27.6875C27.8958 48.9167 28.2192 50.1458 28.6575 51.3125C29.0958 52.4792 29.6683 53.5833 30.375 54.625L30 55L26.25 51.25L22.5 55L18.75 51.25L15 55L11.25 51.25L7.5 55ZM15 42.5H27.6875C27.8125 41.625 28 40.7708 28.25 39.9375C28.5 39.1042 28.8125 38.2917 29.1875 37.5H15V42.5ZM15 32.5H32.75C34.3333 30.9583 36.1775 29.7392 38.2825 28.8425C40.3875 27.9458 42.6267 27.4983 45 27.5H15V32.5Z" fill="#9BCDD2"/>
</svg>
