<svg width="50" height="50" viewBox="0 0 50 50" fill="none" xmlns="http://www.w3.org/2000/svg">
<path d="M12.4999 43.4525H5.35707C4.40987 43.4525 3.50146 43.1148 2.83169 42.5137C2.16192 41.9126 1.78564 41.0974 1.78564 40.2474V14.6063H48.2142V40.2474C48.2142 41.0974 47.8379 41.9126 47.1682 42.5137C46.4984 43.1148 45.59 43.4525 44.6428 43.4525H37.4999" stroke="#9BCDD2" stroke-linecap="round" stroke-linejoin="round"/>
<path d="M16.0714 32.2345L24.9999 24.2217M24.9999 24.2217L33.9285 32.2345M24.9999 24.2217V43.4524M24.9999 1.78577V14.6063M40.3214 3.38833C40.0159 2.91313 39.5797 2.51624 39.0544 2.23565C38.5292 1.95506 37.9324 1.80015 37.3214 1.78577H12.6785C12.0674 1.80015 11.4707 1.95506 10.9454 2.23565C10.4202 2.51624 9.98393 2.91313 9.6785 3.38833L1.78564 14.6063H48.2142L40.3214 3.38833Z" stroke="#9BCDD2" stroke-linecap="round" stroke-linejoin="round"/>
</svg>
