<svg width="63" height="58" viewBox="0 0 63 58" fill="none" xmlns="http://www.w3.org/2000/svg">
<g filter="url(#filter0_d_111_1049)">
<path d="M12.25 21.4286C15.2836 21.4286 17.75 18.2254 17.75 14.2857C17.75 10.346 15.2836 7.14286 12.25 7.14286C9.21641 7.14286 6.75 10.346 6.75 14.2857C6.75 18.2254 9.21641 21.4286 12.25 21.4286ZM50.75 21.4286C53.7836 21.4286 56.25 18.2254 56.25 14.2857C56.25 10.346 53.7836 7.14286 50.75 7.14286C47.7164 7.14286 45.25 10.346 45.25 14.2857C45.25 18.2254 47.7164 21.4286 50.75 21.4286ZM53.5 25H48C46.4875 25 45.1211 25.7924 44.1242 27.0759C47.5875 29.5424 50.0453 33.9955 50.5781 39.2857H56.25C57.7711 39.2857 59 37.6897 59 35.7143V32.1429C59 28.2031 56.5336 25 53.5 25ZM31.5 25C36.8195 25 41.125 19.4085 41.125 12.5C41.125 5.59152 36.8195 0 31.5 0C26.1805 0 21.875 5.59152 21.875 12.5C21.875 19.4085 26.1805 25 31.5 25ZM38.1 28.5714H37.3867C35.5992 29.6875 33.6141 30.3571 31.5 30.3571C29.3859 30.3571 27.4094 29.6875 25.6133 28.5714H24.9C19.4344 28.5714 15 34.3304 15 41.4286V44.6429C15 47.6004 16.8477 50 19.125 50H43.875C46.1523 50 48 47.6004 48 44.6429V41.4286C48 34.3304 43.5656 28.5714 38.1 28.5714ZM18.8758 27.0759C17.8789 25.7924 16.5125 25 15 25H9.5C6.46641 25 4 28.2031 4 32.1429V35.7143C4 37.6897 5.22891 39.2857 6.75 39.2857H12.4133C12.9547 33.9955 15.4125 29.5424 18.8758 27.0759Z" fill="#9BCDD2"/>
</g>
<defs>
<filter id="filter0_d_111_1049" x="0" y="0" width="63" height="58" filterUnits="userSpaceOnUse" color-interpolation-filters="sRGB">
<feFlood flood-opacity="0" result="BackgroundImageFix"/>
<feColorMatrix in="SourceAlpha" type="matrix" values="0 0 0 0 0 0 0 0 0 0 0 0 0 0 0 0 0 0 127 0" result="hardAlpha"/>
<feOffset dy="4"/>
<feGaussianBlur stdDeviation="2"/>
<feComposite in2="hardAlpha" operator="out"/>
<feColorMatrix type="matrix" values="0 0 0 0 0 0 0 0 0 0 0 0 0 0 0 0 0 0 0.25 0"/>
<feBlend mode="normal" in2="BackgroundImageFix" result="effect1_dropShadow_111_1049"/>
<feBlend mode="normal" in="SourceGraphic" in2="effect1_dropShadow_111_1049" result="shape"/>
</filter>
</defs>
</svg>
