<svg width="50" height="50" viewBox="0 0 50 50" fill="none" xmlns="http://www.w3.org/2000/svg">
<path d="M41.6663 22.9167C41.6663 18.4964 39.9104 14.2572 36.7848 11.1316C33.6592 8.00595 29.4199 6.25 24.9997 6.25C20.5794 6.25 16.3402 8.00595 13.2146 11.1316C10.089 14.2572 8.33301 18.4964 8.33301 22.9167" stroke="#9BCDD2" stroke-width="1.5" stroke-linecap="round" stroke-linejoin="round"/>
<path d="M41.6665 37.5V38.5416C41.6665 39.6467 41.2275 40.7065 40.4461 41.4879C39.6647 42.2693 38.6049 42.7083 37.4998 42.7083H30.2082M4.1665 32.1625V28.2541C4.16664 27.325 4.47734 26.4226 5.04922 25.6902C5.6211 24.9579 6.42134 24.4378 7.32275 24.2125L10.9478 23.3041C11.132 23.2583 11.3242 23.2549 11.5099 23.2944C11.6955 23.3339 11.8698 23.4152 12.0194 23.532C12.169 23.6489 12.29 23.7983 12.3732 23.9689C12.4565 24.1395 12.4998 24.3268 12.4998 24.5166V35.8979C12.5002 36.0881 12.4571 36.2759 12.3738 36.447C12.2906 36.618 12.1694 36.7678 12.0195 36.885C11.8697 37.0021 11.695 37.0835 11.5089 37.1229C11.3228 37.1623 11.1302 37.1588 10.9457 37.1125L7.32067 36.2062C6.41964 35.9805 5.61987 35.4602 5.0484 34.7279C4.47693 33.9957 4.16653 33.0934 4.1665 32.1646V32.1625ZM45.8332 32.1625V28.2541C45.833 27.325 45.5223 26.4226 44.9505 25.6902C44.3786 24.9579 43.5783 24.4378 42.6769 24.2125L39.0519 23.3041C38.8677 23.2583 38.6755 23.2549 38.4898 23.2944C38.3041 23.3339 38.1299 23.4152 37.9803 23.532C37.8307 23.6489 37.7097 23.7983 37.6265 23.9689C37.5432 24.1395 37.4999 24.3268 37.4998 24.5166V35.8979C37.4996 36.0879 37.5427 36.2755 37.6258 36.4463C37.7089 36.6172 37.8299 36.7668 37.9795 36.8839C38.1291 37.001 38.3035 37.0825 38.4893 37.1221C38.6751 37.1617 38.8676 37.1584 39.0519 37.1125L42.6769 36.2062C43.5783 35.9809 44.3786 35.4608 44.9505 34.7285C45.5223 33.9961 45.833 33.0937 45.8332 32.1646V32.1625Z" stroke="#9BCDD2" stroke-width="1.5"/>
<path d="M28.125 45.8334H21.875C21.0462 45.8334 20.2513 45.5041 19.6653 44.9181C19.0792 44.332 18.75 43.5372 18.75 42.7084C18.75 41.8796 19.0792 41.0847 19.6653 40.4987C20.2513 39.9126 21.0462 39.5834 21.875 39.5834H28.125C28.9538 39.5834 29.7487 39.9126 30.3347 40.4987C30.9208 41.0847 31.25 41.8796 31.25 42.7084C31.25 43.5372 30.9208 44.332 30.3347 44.9181C29.7487 45.5041 28.9538 45.8334 28.125 45.8334Z" stroke="#9BCDD2" stroke-width="1.5"/>
</svg>
