<svg width="60" height="60" viewBox="0 0 60 60" fill="none" xmlns="http://www.w3.org/2000/svg">
<path fill-rule="evenodd" clip-rule="evenodd" d="M30.13 3.125H29.87C27.6225 3.125 25.75 3.125 24.265 3.325C22.695 3.535 21.2775 4 20.14 5.1375C19 6.2775 18.535 7.695 18.325 9.2625C18.1825 10.33 18.14 12.8775 18.13 15.0625C13.075 15.23 10.0375 15.82 7.93 17.93C5 20.8575 5 25.5725 5 35C5 44.4275 5 49.1425 7.93 52.07C10.8575 55 15.5725 55 25 55H35C44.4275 55 49.1425 55 52.07 52.07C55 49.1425 55 44.4275 55 35C55 25.5725 55 20.8575 52.07 17.93C49.9625 15.82 46.925 15.23 41.87 15.065C41.86 12.8775 41.82 10.33 41.675 9.265C41.465 7.695 41 6.2775 39.86 5.14C38.7225 4 37.305 3.535 35.735 3.325C34.25 3.125 32.375 3.125 30.13 3.125ZM38.12 15.005C38.1075 12.8875 38.0725 10.61 37.96 9.7625C37.8025 8.61 37.535 8.115 37.21 7.79C36.885 7.465 36.39 7.1975 35.235 7.04C34.03 6.88 32.41 6.875 30 6.875C27.59 6.875 25.97 6.88 24.7625 7.0425C23.61 7.1975 23.115 7.465 22.79 7.7925C22.465 8.1175 22.1975 8.61 22.04 9.7625C21.9275 10.6125 21.89 12.8875 21.88 15.005C22.8575 15 23.9 15 25 15H35C36.1025 15 37.1425 15 38.12 15.005ZM30 23.125C30.4973 23.125 30.9742 23.3225 31.3258 23.6742C31.6775 24.0258 31.875 24.5027 31.875 25V25.025C34.5975 25.71 36.875 27.8575 36.875 30.8325C36.875 31.3298 36.6775 31.8067 36.3258 32.1583C35.9742 32.51 35.4973 32.7075 35 32.7075C34.5027 32.7075 34.0258 32.51 33.6742 32.1583C33.3225 31.8067 33.125 31.3298 33.125 30.8325C33.125 29.8725 32.06 28.5425 30 28.5425C27.94 28.5425 26.875 29.8725 26.875 30.8325C26.875 31.7925 27.94 33.125 30 33.125C33.4625 33.125 36.875 35.525 36.875 39.1675C36.875 42.1425 34.5975 44.2875 31.875 44.975V45C31.875 45.4973 31.6775 45.9742 31.3258 46.3258C30.9742 46.6775 30.4973 46.875 30 46.875C29.5027 46.875 29.0258 46.6775 28.6742 46.3258C28.3225 45.9742 28.125 45.4973 28.125 45V44.975C25.4025 44.29 23.125 42.1425 23.125 39.1675C23.125 38.6702 23.3225 38.1933 23.6742 37.8417C24.0258 37.49 24.5027 37.2925 25 37.2925C25.4973 37.2925 25.9742 37.49 26.3258 37.8417C26.6775 38.1933 26.875 38.6702 26.875 39.1675C26.875 40.1275 27.94 41.4575 30 41.4575C32.06 41.4575 33.125 40.1275 33.125 39.1675C33.125 38.2075 32.06 36.875 30 36.875C26.5375 36.875 23.125 34.475 23.125 30.8325C23.125 27.8575 25.4025 25.71 28.125 25.025V25C28.125 24.5027 28.3225 24.0258 28.6742 23.6742C29.0258 23.3225 29.5027 23.125 30 23.125Z" fill="#9BCDD2"/>
</svg>
