<svg width="60" height="60" viewBox="0 0 60 60" fill="none" xmlns="http://www.w3.org/2000/svg">
<path d="M32.8125 0.0585938L50 8.72428V28.0497L46.875 26.4742V12.2447L34.375 18.547V24.8986L31.25 26.4742V18.547L18.75 12.2447V17.8331L15.625 16.2575V8.72428L32.8125 0.0585938ZM32.8125 15.8144L37.1338 13.6233L25.8301 7.09946L20.6787 9.70901L32.8125 15.8144ZM40.5029 11.9493L44.9463 9.70901L32.8125 3.57903L29.1748 5.42541L40.5029 11.9493ZM28.125 28.0497L25 29.6253V29.6007L15.625 34.3274V45.5288L25 40.7775V44.3225L14.0625 49.837L0 42.7223V26.0803L14.0625 18.9902L28.125 26.0803V28.0497ZM12.5 45.5288V34.3274L3.125 29.6007V40.7775L12.5 45.5288ZM14.0625 31.5948L23.0713 27.065L14.0625 22.5106L5.05371 27.065L14.0625 31.5948ZM28.125 31.5702L39.0625 26.0556L50 31.5702V44.5441L39.0625 50.0586L28.125 44.5441V31.5702ZM37.5 45.7504V38.2418L31.25 35.0906V42.5992L37.5 45.7504ZM46.875 42.5992V35.0906L40.625 38.2418V45.7504L46.875 42.5992ZM39.0625 35.5091L44.9463 32.5303L39.0625 29.5761L33.1787 32.5303L39.0625 35.5091Z" fill="#9BCDD2"/>
</svg>
