<svg width="14" height="14" viewBox="0 0 14 14" fill="none" xmlns="http://www.w3.org/2000/svg">
<path d="M7.00266 8.56185H7.04083C7.85891 8.58055 8.51337 9.15102 8.51337 9.85243C8.51337 10.451 8.03888 10.9513 7.39533 11.1009V11.6246C7.39533 11.8117 7.22081 11.9613 7.00266 11.9613C6.7845 11.9613 6.60998 11.8117 6.60998 11.6246V11.1009C6.28952 11.027 6.00637 10.8647 5.80428 10.6391C5.60219 10.4134 5.49243 10.1369 5.49194 9.85243C5.49194 9.66539 5.66647 9.51575 5.88462 9.51575C6.10277 9.51575 6.2773 9.66539 6.2773 9.85243C6.2773 10.1985 6.59907 10.4743 6.9972 10.4743C7.39533 10.4743 7.72256 10.1938 7.72256 9.85243C7.72256 9.51108 7.39533 9.23052 6.9972 9.23052H6.95902C6.56669 9.22139 6.19395 9.08147 5.92001 8.84049C5.64607 8.59951 5.49251 8.27644 5.49194 7.93994C5.49194 7.34141 5.96643 6.84107 6.60998 6.69144V6.16773C6.60998 5.98069 6.7845 5.83105 7.00266 5.83105C7.22081 5.83105 7.39533 5.98069 7.39533 6.16773V6.69144C8.03888 6.84107 8.51337 7.34141 8.51337 7.93994C8.51337 8.12698 8.33884 8.27661 8.12069 8.27661C7.90254 8.27661 7.72802 8.12698 7.72802 7.93994C7.72802 7.59859 7.40079 7.31803 7.00266 7.31803C6.60453 7.31803 6.2773 7.59859 6.2773 7.93994C6.2773 8.28129 6.60453 8.56185 7.00266 8.56185Z" fill="black"/>
<path d="M4.10783 1.90081L5.62726 3.42519L5.46311 3.58231C2.33588 4.18364 0 6.57823 0 9.44089C0 11.9575 2.38223 14 5.31749 14H8.6825C11.6178 14 14 11.958 14 9.44135C14.0054 6.57823 11.6696 4.18364 8.54234 3.58231C8.55505 3.4835 8.53422 3.38364 8.48235 3.29473L9.77491 2.02613L9.85835 1.91578C9.95579 1.73357 9.98071 1.52896 9.92929 1.33342C9.87787 1.13787 9.75295 0.962232 9.57374 0.8335C9.39453 0.704768 9.17096 0.630076 8.93742 0.620912C8.70387 0.611748 8.47327 0.668619 8.2811 0.782779L7.82134 0.315177C7.71821 0.216224 7.59191 0.137014 7.45069 0.0827083C7.30946 0.0284031 7.15647 0.000221891 7.00169 1.30506e-06C6.84692 -0.000219281 6.69382 0.0275257 6.55238 0.0814281C6.41095 0.13533 6.28435 0.21418 6.18083 0.312839L5.69926 0.773894C5.50758 0.65736 5.27646 0.598222 5.04164 0.605627C4.80683 0.613032 4.5814 0.686568 4.40023 0.814859C4.21905 0.943151 4.09223 1.11905 4.03938 1.31535C3.98652 1.51165 4.01058 1.71741 4.10783 1.90081ZM6.17974 2.54844L5.25477 1.63194C5.46966 1.72072 5.71281 1.74593 5.94619 1.70363C6.17956 1.66132 6.39001 1.55389 6.5446 1.39814L6.98091 0.912772L7.46521 1.40469C7.61621 1.55525 7.81991 1.65994 8.04595 1.70317C8.27199 1.74639 8.50828 1.72584 8.71959 1.64457L7.79898 2.54844H6.17974ZM1.09077 9.44089C1.09077 6.64089 3.73697 4.37209 7.00272 4.37209C10.2685 4.37209 12.9147 6.64089 12.9092 9.43995C12.9088 10.401 12.4633 11.3234 11.6708 12.003C10.8782 12.6825 9.80337 13.0644 8.6825 13.0648H5.31749C4.19662 13.0644 3.12179 12.6825 2.32922 12.003C1.53665 11.3234 1.0912 10.4019 1.09077 9.44089Z" fill="black"/>
</svg>
