<svg width="35" height="24" viewBox="0 0 35 24" fill="none" xmlns="http://www.w3.org/2000/svg">
<path fill-rule="evenodd" clip-rule="evenodd" d="M14 0H21C27.5993 0 30.8997 -1.78814e-07 32.949 1.758C34.426 3.0225 34.839 4.8435 34.9545 7.875H0.0455C0.161 4.8435 0.574 3.0225 2.051 1.758C4.10025 -1.78814e-07 7.40075 0 14 0ZM21 24H14C7.40075 24 4.10025 24 2.051 22.242C-2.08616e-07 20.4855 0 17.6565 0 12C0 11.337 1.63389e-07 10.713 0.00350016 10.125H34.9965C35 10.713 35 11.337 35 12C35 17.6565 35 20.4855 32.949 22.242C30.8997 24 27.5993 24 21 24ZM7 16.875C6.6519 16.875 6.31806 16.9935 6.07192 17.2045C5.82578 17.4155 5.6875 17.7016 5.6875 18C5.6875 18.2984 5.82578 18.5845 6.07192 18.7955C6.31806 19.0065 6.6519 19.125 7 19.125H14C14.3481 19.125 14.6819 19.0065 14.9281 18.7955C15.1742 18.5845 15.3125 18.2984 15.3125 18C15.3125 17.7016 15.1742 17.4155 14.9281 17.2045C14.6819 16.9935 14.3481 16.875 14 16.875H7ZM18.375 16.875C18.0269 16.875 17.6931 16.9935 17.4469 17.2045C17.2008 17.4155 17.0625 17.7016 17.0625 18C17.0625 18.2984 17.2008 18.5845 17.4469 18.7955C17.6931 19.0065 18.0269 19.125 18.375 19.125H21C21.3481 19.125 21.6819 19.0065 21.9281 18.7955C22.1742 18.5845 22.3125 18.2984 22.3125 18C22.3125 17.7016 22.1742 17.4155 21.9281 17.2045C21.6819 16.9935 21.3481 16.875 21 16.875H18.375Z" fill="#9BCDD2"/>
</svg>
