<svg width="24" height="20" viewBox="0 0 24 20" fill="none" xmlns="http://www.w3.org/2000/svg">
<path d="M17 15C17.5304 15 18.0391 15.1756 18.4142 15.4881C18.7893 15.8007 19 16.2246 19 16.6666C19 17.1087 18.7893 17.5326 18.4142 17.8451C18.0391 18.1577 17.5304 18.3333 17 18.3333C16.4696 18.3333 15.9609 18.1577 15.5858 17.8451C15.2107 17.5326 15 17.1087 15 16.6666C15 15.7416 15.89 15 17 15ZM1 1.66663H4.27L5.21 3.33329H20C20.2652 3.33329 20.5196 3.42109 20.7071 3.57737C20.8946 3.73365 21 3.94561 21 4.16663C21 4.30829 20.95 4.44996 20.88 4.58329L17.3 9.97496C16.96 10.4833 16.3 10.8333 15.55 10.8333H8.1L7.2 12.1916L7.17 12.2916C7.17 12.3469 7.19634 12.3999 7.24322 12.4389C7.29011 12.478 7.3537 12.5 7.42 12.5H19V14.1666H7C6.46957 14.1666 5.96086 13.991 5.58579 13.6785C5.21071 13.3659 5 12.942 5 12.5C5 12.2083 5.09 11.9333 5.24 11.7L6.6 9.65829L3 3.33329H1V1.66663ZM7 15C7.53043 15 8.03914 15.1756 8.41421 15.4881C8.78929 15.8007 9 16.2246 9 16.6666C9 17.1087 8.78929 17.5326 8.41421 17.8451C8.03914 18.1577 7.53043 18.3333 7 18.3333C6.46957 18.3333 5.96086 18.1577 5.58579 17.8451C5.21071 17.5326 5 17.1087 5 16.6666C5 15.7416 5.89 15 7 15ZM16 9.16663L18.78 4.99996H6.14L8.5 9.16663H16Z" fill="#001C30"/>
</svg>
