<svg width="10" height="10" viewBox="0 0 10 10" fill="none" xmlns="http://www.w3.org/2000/svg">
<path d="M2.91699 7.08879L4.75574 7.08254L8.76908 3.10754C8.92658 2.95004 9.01324 2.74087 9.01324 2.51837C9.01324 2.29587 8.92658 2.08671 8.76908 1.92921L8.10824 1.26837C7.79324 0.953374 7.24366 0.955041 6.93116 1.26712L2.91699 5.24296V7.08879ZM7.51908 1.85754L8.18116 2.51712L7.51574 3.17629L6.85491 2.51587L7.51908 1.85754ZM3.75033 5.59046L6.26283 3.10171L6.92366 3.76254L4.41158 6.25046L3.75033 6.25254V5.59046Z" fill="#001C30"/>
<path d="M2.08333 8.75H7.91667C8.37625 8.75 8.75 8.37625 8.75 7.91667V4.305L7.91667 5.13833V7.91667H3.39917C3.38833 7.91667 3.37708 7.92083 3.36625 7.92083C3.3525 7.92083 3.33875 7.91708 3.32458 7.91667H2.08333V2.08333H4.93625L5.76958 1.25H2.08333C1.62375 1.25 1.25 1.62375 1.25 2.08333V7.91667C1.25 8.37625 1.62375 8.75 2.08333 8.75Z" fill="#001C30"/>
</svg>
