<svg width="53" height="20" viewBox="0 0 53 20" fill="none" xmlns="http://www.w3.org/2000/svg">
<path d="M53 4.44531L46.0821 20H43.9423L46.5127 14.5568L41.9582 4.44364H44.209L47.5048 12.1952H47.5478L50.7393 4.44364L53 4.44531ZM24.2586 9.25521V15.5568H22.084V0.00206086H27.8376C29.2034 -0.035614 30.5334 0.444423 31.564 1.34703C32.5826 2.18868 33.1423 3.37866 33.1258 4.63697C33.1328 5.27021 32.9957 5.89667 32.725 6.46837C32.4543 7.04006 32.0572 7.54183 31.564 7.93524C30.5637 8.82022 29.3215 9.25521 27.8376 9.25521H24.2586ZM24.2503 1.92036V7.34525H27.8906C28.6831 7.37385 29.4549 7.08702 30.0387 6.54693C30.6001 6.04361 30.9098 5.35696 30.9098 4.6453C30.9098 3.92532 30.5984 3.23866 30.0387 2.74367C29.7528 2.46984 29.4156 2.2559 29.0469 2.11427C28.6781 1.97265 28.2851 1.90617 27.8906 1.91869L24.2503 1.92036ZM37.4815 4.44531C38.8611 4.44531 39.9575 4.8353 40.7591 5.60862C41.5607 6.38194 41.9582 7.44025 41.9582 8.78522V15.2168H40.1646V13.7668H40.0867C39.31 14.9568 38.2831 15.5551 36.9979 15.5551C35.8933 15.5551 34.9791 15.2168 34.2371 14.5301C33.8791 14.2112 33.5942 13.8179 33.402 13.3774C33.2098 12.9368 33.115 12.4595 33.1241 11.9785C33.1241 10.9018 33.5117 10.0435 34.2967 9.40021C35.0735 8.76689 36.1169 8.44523 37.4186 8.44523C38.5316 8.44523 39.4458 8.66189 40.1613 9.08688V8.63522C40.1636 8.30736 40.0962 7.98279 39.9637 7.68327C39.8311 7.38375 39.6365 7.11621 39.3928 6.89859C38.9019 6.43622 38.2532 6.18143 37.5809 6.18694C36.5375 6.18694 35.7094 6.64693 35.0966 7.56691L33.4487 6.49027C34.3547 5.12696 35.6995 4.44197 37.4766 4.44197L37.4815 4.44531ZM35.0586 12.0235C35.0549 12.2705 35.1092 12.5148 35.2171 12.7367C35.325 12.9585 35.4835 13.1516 35.6796 13.3001C36.0937 13.6385 36.6121 13.8218 37.1371 13.8118C37.9221 13.8118 38.6806 13.4818 39.2421 12.9001C39.8366 12.3452 40.1745 11.5635 40.1745 10.7468C39.5882 10.2602 38.7767 10.0169 37.7333 10.0169C36.9648 10.0169 36.3355 10.2085 35.827 10.5902C35.3186 10.9802 35.0586 11.4518 35.0586 12.0235ZM9.0167 0.00206086C11.2466 -0.0250033 13.4029 0.803998 15.0469 2.32035L12.4765 4.8553C11.5375 3.97865 10.2973 3.50251 9.0167 3.52699C7.89916 3.5325 6.81108 3.88823 5.90371 4.54475C4.99635 5.20127 4.31478 6.12594 3.95374 7.19025C3.5744 8.29256 3.5744 9.49121 3.95374 10.5935C4.31478 11.6578 4.99635 12.5825 5.90371 13.239C6.81108 13.8955 7.89916 14.2513 9.0167 14.2568C10.2323 14.2568 11.2774 13.9535 12.0873 13.4151C12.5532 13.1098 12.9525 12.7122 13.2609 12.2466C13.5692 11.781 13.7802 11.2571 13.8809 10.7069H9.01505V7.28692H17.5113C17.6156 7.88524 17.667 8.48523 17.667 9.09188C17.667 11.8002 16.6832 14.0918 14.9839 15.6368C13.4917 16.9917 11.448 17.78 9.01505 17.78C7.3544 17.7886 5.7236 17.336 4.30205 16.4721C2.88049 15.6082 1.72328 14.3664 0.957706 12.8835C0.328271 11.6477 0 10.2789 0 8.89022C0 7.50154 0.328271 6.13278 0.957706 4.89696C1.72236 3.41539 2.87799 2.17455 4.29766 1.31073C5.71732 0.446906 7.34611 -0.00647011 9.00511 0.000395147L9.0167 0.00206086Z" fill="#9BCDD2"/>
</svg>
