<svg width="16" height="16" viewBox="0 0 16 16" fill="none" xmlns="http://www.w3.org/2000/svg">
<path d="M5.2865 0C4.9372 0.0143107 4.57256 0.0519533 4.1975 0.112022C4.49117 1.42535 5.1573 2.60991 6.46504 3.64347V3.26306C6.13391 2.89185 5.87184 2.33884 5.65863 1.71989C5.46482 1.1571 5.32936 0.552502 5.2865 0ZM10.7135 0C10.6706 0.552502 10.5352 1.15718 10.3414 1.71993C10.1282 2.33884 9.86609 2.89189 9.53496 3.26306V3.64347C10.8427 2.60984 11.5088 1.42528 11.8025 0.111986C11.4274 0.0519171 11.0628 0.0143107 10.7135 0ZM5.96592 0.0789807C5.99531 0.345015 6.04948 0.633657 6.12234 0.922516C6.77189 1.25706 7.3801 1.43567 8 1.43567C8.6199 1.43567 9.22811 1.25706 9.87766 0.922516C9.95052 0.633693 10.0047 0.345015 10.0341 0.0789807C9.24691 0.563009 8.61398 0.783539 8 0.783539C7.38602 0.783539 6.75309 0.563009 5.96592 0.0789807ZM3.53684 0.238681C2.38386 0.494897 1.16196 0.946572 0 1.56864C1.12909 6.03594 1.70526 12.0062 1.19285 16H6.46504V4.46567C4.7703 3.2765 3.89081 1.81685 3.53684 0.238681ZM12.4632 0.238681C12.1092 1.81681 11.2297 3.2765 9.53496 4.46571V16H14.8071C14.2947 12.0062 14.8709 6.03594 16 1.56864C14.838 0.946572 13.6161 0.494897 12.4632 0.238681ZM5.68098 5.75606L5.7538 10.3993L5.57084 10.4925C4.55934 11.0083 3.4131 11.0294 2.27769 10.7272L2.03397 10.6624L1.96583 6.31936L1.96096 6.0109L5.68098 5.75606ZM10.319 5.75606L13.721 5.98909L14.039 6.01083L13.966 10.6624L13.7223 10.7272C12.5869 11.0294 11.4407 11.0083 10.4292 10.4925L10.2462 10.3993L10.319 5.75606ZM4.56181 6.48645L3.13797 6.58398L3.90036 7.22416L4.56181 6.48645ZM11.4382 6.48645L12.0997 7.2242L12.862 6.58402L11.4382 6.48645ZM5.02593 6.96396L3.96756 8.14418L2.65105 7.03852L2.69999 10.1547C3.55305 10.343 4.3528 10.3094 5.07348 9.99693L5.02593 6.96396ZM10.9741 6.96396L10.9265 9.99693C11.6472 10.3094 12.447 10.343 13.3 10.1547L13.3489 7.03852L12.0324 8.14418L10.9741 6.96396ZM7.13893 15.3479V16H8.86107V15.3479H7.13893Z" fill="#9BCDD2"/>
</svg>
