<svg width="16" height="16" viewBox="0 0 16 16" fill="none" xmlns="http://www.w3.org/2000/svg">
<path fill-rule="evenodd" clip-rule="evenodd" d="M12.7835 0.682118C12.6648 0.463591 12.4336 0.273315 12.2243 0.273315C11.8493 0.273315 11.3674 0.672147 11.076 0.913939C10.6394 1.27538 10.1301 1.61854 9.5833 1.73819C9.17868 1.82544 8.69595 1.75979 8.26946 1.64098C8.19916 1.62187 7.59458 1.39669 7.59458 1.39669C6.75722 0.985396 6.3854 2.15447 6.05499 2.73028C5.82847 3.1233 5.54336 3.59193 5.21919 4.06471C5.08975 4.05199 4.95937 4.07383 4.83987 4.12827C4.72037 4.1827 4.61553 4.26799 4.53485 4.37642C4.45417 4.48485 4.40021 4.61298 4.37786 4.7492C4.3555 4.88542 4.36546 5.02542 4.40683 5.15651C4.16625 5.46976 3.93816 5.76972 3.72179 6.05887C3.57192 6.01387 3.41282 6.01755 3.26492 6.06944C3.11703 6.12133 2.9871 6.21906 2.8918 6.35008C2.79651 6.4811 2.7402 6.63942 2.73012 6.80473C2.72004 6.97004 2.75664 7.13478 2.83522 7.2778C1.99786 8.46848 1.4214 9.43647 1.08864 10.2981C0.807437 11.0293 0.687145 11.7131 0.73948 12.4103C0.791815 13.0974 1.00662 13.738 1.30735 14.3845C1.7151 15.2611 2.71493 15.5012 3.44684 15.0517L14.9465 7.98905C15.3053 7.76867 15.5671 7.40571 15.6743 6.98C15.7815 6.55429 15.7254 6.10071 15.5182 5.71903L12.7843 0.682118H12.7835ZM12.9929 4.39125L11.8845 2.34973C11.2877 2.8034 10.6214 3.20805 9.89653 3.36592C9.15134 3.52795 8.39757 3.39417 7.87578 3.2496C7.55474 3.16069 7.56021 3.29696 7.38758 3.59691C7.19074 3.94007 6.94703 4.34389 6.66895 4.76516L6.75565 4.81086C6.84827 4.85878 6.93106 4.9257 6.99926 5.00779C7.06746 5.08987 7.11973 5.18549 7.15306 5.28915C7.18639 5.3928 7.20012 5.50245 7.19346 5.61177C7.1868 5.72109 7.15989 5.82793 7.11426 5.92615C7.06864 6.02436 7.00521 6.11201 6.92762 6.18404C6.85003 6.25608 6.75981 6.31109 6.66216 6.34589C6.56451 6.3807 6.46135 6.39462 6.35863 6.38686C6.2559 6.3791 6.15563 6.3498 6.06358 6.30066L5.69411 6.10623C5.50821 6.34885 5.33168 6.57984 5.16295 6.80419C5.3349 6.91412 5.4605 7.09022 5.5137 7.29598C5.56691 7.50174 5.54365 7.72139 5.44875 7.90941C5.35385 8.09742 5.19457 8.23939 5.00394 8.30588C4.81331 8.37238 4.60594 8.3583 4.4248 8.26657L4.18109 8.13861C3.33279 9.33261 2.81257 10.2051 2.53293 10.9288C2.32593 11.4664 2.26735 11.8876 2.29625 12.2773C2.32515 12.6645 2.44622 13.0783 2.68525 13.6001L14.1646 6.54993L13.774 5.83037L10.3918 7.90762C10.2124 8.01607 10.0001 8.04466 9.80103 7.98718C9.60197 7.92969 9.43236 7.79078 9.32923 7.60076C9.22609 7.41075 9.19779 7.18505 9.25052 6.97293C9.30324 6.7608 9.4327 6.57947 9.61064 6.4685L12.9929 4.39125Z" fill="#9BCDD2"/>
</svg>
