<svg width="10" height="10" viewBox="0 0 10 10" fill="none" xmlns="http://www.w3.org/2000/svg">
<path d="M8.88889 8.88889V1.11111H1.11111V8.88889H8.88889ZM8.88889 0C9.18357 0 9.46619 0.117063 9.67456 0.325437C9.88294 0.533811 10 0.816426 10 1.11111V8.88889C10 9.18357 9.88294 9.46619 9.67456 9.67456C9.46619 9.88294 9.18357 10 8.88889 10H1.11111C0.816426 10 0.533811 9.88294 0.325437 9.67456C0.117063 9.46619 0 9.18357 0 8.88889V1.11111C0 0.816426 0.117063 0.533811 0.325437 0.325437C0.533811 0.117063 0.816426 0 1.11111 0H8.88889ZM7.77778 4.44444V5.55556H2.22222V4.44444H7.77778Z" fill="#9BCDD2"/>
</svg>
