<svg width="46" height="19" viewBox="0 0 46 19" fill="none" xmlns="http://www.w3.org/2000/svg">
<path d="M30.3792 0.00244141C30.3534 0.00247404 30.3277 0.00579364 30.3025 0.0123533C28.9992 0.483202 29.2618 2.85727 26.8889 3.06048H26.6589C26.6254 3.05971 26.592 3.06386 26.5593 3.07287H26.5573C26.4563 3.10421 26.3665 3.17881 26.3025 3.28455C26.2384 3.3903 26.204 3.52094 26.2047 3.65524V6.35643C26.2047 6.6885 26.4078 6.95366 26.6589 6.95366H27.8952V18.4102C27.8952 18.7373 28.0945 19 28.3418 19H30.3696C30.4892 18.998 30.6034 18.9348 30.6871 18.8243C30.7708 18.7138 30.8172 18.5649 30.8162 18.4102V6.95366H31.9662C32.2153 6.95366 32.4185 6.6885 32.4185 6.35643V3.65524C32.419 3.49901 32.3718 3.34884 32.2871 3.23744C32.2023 3.12605 32.087 3.06244 31.9662 3.06048H30.7932V0.545157C30.7937 0.474211 30.7834 0.403832 30.7628 0.338037C30.7423 0.272242 30.712 0.21232 30.6735 0.161693C30.6351 0.111067 30.5893 0.0707274 30.5388 0.0429776C30.4883 0.0152279 30.434 0.0030893 30.3792 0.00244141ZM38.4771 2.90188C37.7143 2.90188 37.0166 3.2736 36.4799 3.88075V3.57346C36.4732 3.42482 36.4232 3.28499 36.34 3.18203C36.2568 3.07907 36.1466 3.0206 36.0314 3.01835H33.9806C33.8593 3.02096 33.7436 3.08546 33.6589 3.19778C33.5742 3.31011 33.5272 3.46118 33.5283 3.61807V18.2887C33.5272 18.4456 33.5742 18.5967 33.6589 18.709C33.7436 18.8213 33.8593 18.8858 33.9806 18.8884H36.0314C36.2614 18.8884 36.4473 18.6629 36.478 18.3705V7.83836C36.4702 7.58288 36.5403 7.33366 36.6734 7.14449C36.8064 6.95533 36.9916 6.84139 37.1891 6.82727H37.5648C37.7233 6.84325 37.8743 6.92102 37.9979 7.05031C38.0871 7.14676 38.1583 7.26788 38.2064 7.4047C38.2545 7.54153 38.2782 7.69058 38.2758 7.84084V17.9368L38.2835 18.321C38.283 18.4778 38.3304 18.6286 38.4155 18.7405C38.5006 18.8524 38.6164 18.9162 38.7378 18.9182H40.7886C40.9058 18.9158 41.0179 18.8553 41.1017 18.7493C41.1854 18.6432 41.2346 18.4997 41.239 18.3482L41.2371 7.82597C41.2371 7.47903 41.3559 7.16678 41.5706 6.9834C41.6829 6.8874 41.8121 6.82945 41.9463 6.81489H42.3258C42.7666 6.86445 43.0349 7.31052 43.0349 7.82597C43.0445 11.2855 43.0426 14.7648 43.0426 18.2937C43.0421 18.4506 43.0895 18.6014 43.1746 18.7132C43.2597 18.8251 43.3755 18.889 43.4968 18.8909H45.5477C45.7968 18.8909 46 18.6233 46 18.2937V7.03544C46 6.26721 45.9348 5.9401 45.8467 5.60555C45.6424 4.82129 45.2536 4.13925 44.7346 3.65489C44.2156 3.17054 43.5925 2.90812 42.9525 2.90436H42.9238C42.5098 2.90479 42.1002 3.01496 41.7204 3.22808C41.3407 3.4412 40.9987 3.75273 40.7158 4.14344C40.158 3.38017 39.3741 2.90436 38.5058 2.90436L38.4771 2.90188ZM0.444683 3.058C0.385785 3.05865 0.327562 3.07429 0.273339 3.10404C0.219116 3.13378 0.169955 3.17704 0.128664 3.23135C0.0873721 3.28566 0.0547586 3.34995 0.0326852 3.42056C0.0106118 3.49116 -0.000489034 3.5667 1.65225e-05 3.64285V18.3234C1.65225e-05 18.6505 0.184016 18.9132 0.414016 18.9207H2.50318C2.75235 18.9207 2.95743 18.6555 2.95743 18.3259L2.9651 14.2171H4.92585C6.56843 14.2171 7.71076 12.7178 7.71076 10.547V6.73558C7.71076 4.56224 6.56843 3.058 4.92585 3.058H0.444683ZM17.756 3.058C17.6959 3.05865 17.6364 3.07462 17.581 3.10498C17.5256 3.13535 17.4754 3.17952 17.4332 3.23498C17.391 3.29044 17.3577 3.3561 17.3352 3.4282C17.3126 3.50031 17.3013 3.57746 17.3018 3.65524V9.77628C17.3018 12.1057 18.561 13.7611 20.3282 13.7611H21.6219C21.6219 13.7611 21.6526 13.7611 21.6928 13.7711C21.8109 13.7899 21.9195 13.8642 21.9979 13.9798C22.0764 14.0954 22.1192 14.2442 22.1183 14.398C22.1183 14.7202 21.9343 14.9804 21.6986 15.0201L21.6641 15.03L21.0833 15.0448H18.6664C18.5456 15.0468 18.4303 15.1104 18.3455 15.2218C18.2608 15.3332 18.2136 15.4834 18.2141 15.6396V18.3408C18.2131 18.4977 18.26 18.6487 18.3447 18.7611C18.4295 18.8734 18.5451 18.9379 18.6664 18.9405H22.0206C23.7839 18.9405 25.0432 17.2826 25.0432 14.9556V3.65524C25.0437 3.49901 24.9964 3.34884 24.9117 3.23744C24.827 3.12605 24.7117 3.06244 24.5908 3.06048H22.54C22.4192 3.06244 22.3039 3.12605 22.2191 3.23744C22.1344 3.34884 22.0872 3.49901 22.0877 3.65524C22.0781 5.60555 22.0877 7.43442 22.0877 9.24347C22.0862 9.40719 22.0352 9.56365 21.9457 9.67942C21.8561 9.79519 21.7351 9.86108 21.6085 9.86301H20.7479C20.6196 9.86105 20.4972 9.79345 20.4074 9.67501C20.3176 9.55657 20.2677 9.39694 20.2688 9.23108C20.2783 7.36256 20.2592 5.51385 20.2592 3.65524C20.2597 3.49901 20.2124 3.34884 20.1277 3.23744C20.043 3.12605 19.9277 3.06244 19.8068 3.06048L17.756 3.058ZM10.0817 3.07287C10.0233 3.0709 9.96515 3.08382 9.91061 3.1109C9.85608 3.13798 9.8062 3.17868 9.76384 3.2307C9.72148 3.28271 9.68746 3.345 9.66372 3.41402C9.63999 3.48304 9.627 3.55743 9.62551 3.63294V6.16809C9.62551 6.4952 9.8421 6.76285 10.1085 6.76285H12.8168C13.0314 6.80497 13.2001 7.01066 13.225 7.33282V7.67976C13.2001 7.98705 13.0333 8.21009 12.8283 8.23487H11.4866C9.7041 8.23487 8.43143 9.7961 8.43143 11.9893V15.134C8.43143 17.3148 9.52393 18.8661 11.2968 18.8661H15.0152C15.6822 18.8661 16.2227 18.197 16.2227 17.3793V7.12961C16.2227 4.64155 15.249 3.07287 12.926 3.07287H10.0817ZM2.9651 6.96853H4.2646C4.53101 6.96853 4.74376 7.25352 4.74376 7.60294V9.67467C4.74452 9.75701 4.73273 9.83874 4.70906 9.91518C4.68539 9.99162 4.65031 10.0613 4.60581 10.1202C4.56132 10.1791 4.50828 10.2261 4.44974 10.2585C4.39119 10.2909 4.32828 10.3081 4.2646 10.3091H4.07293C3.70493 10.314 3.3331 10.3091 2.9651 10.3091V6.96853ZM11.9159 11.8678H12.7688C13.0353 11.8678 13.2518 12.1355 13.2518 12.4626V14.7722C13.2512 14.8365 13.2421 14.9002 13.225 14.9606C13.1909 15.0811 13.1287 15.1849 13.047 15.2577C12.9652 15.3305 12.8681 15.3687 12.7688 15.367H11.9159C11.791 15.3703 11.6701 15.3097 11.5797 15.1983C11.4892 15.0869 11.4364 14.9337 11.4329 14.7722V12.4601C11.4329 12.133 11.6495 11.8678 11.9159 11.8678Z" fill="#9BCDD2"/>
</svg>
