<svg width="18" height="18" viewBox="0 0 18 18" fill="none" xmlns="http://www.w3.org/2000/svg">
<g filter="url(#filter0_d_111_297)">
<path d="M12.8889 8.88889V1.11111H5.11111V8.88889H12.8889ZM12.8889 0C13.1836 0 13.4662 0.117063 13.6746 0.325437C13.8829 0.533811 14 0.816426 14 1.11111V8.88889C14 9.18357 13.8829 9.46619 13.6746 9.67456C13.4662 9.88294 13.1836 10 12.8889 10H5.11111C4.81643 10 4.53381 9.88294 4.32544 9.67456C4.11706 9.46619 4 9.18357 4 8.88889V1.11111C4 0.816426 4.11706 0.533811 4.32544 0.325437C4.53381 0.117063 4.81643 0 5.11111 0H12.8889ZM8.44444 2.22222H9.55556V4.44444H11.7778V5.55556H9.55556V7.77778H8.44444V5.55556H6.22222V4.44444H8.44444V2.22222Z" fill="#9BCDD2"/>
</g>
<defs>
<filter id="filter0_d_111_297" x="0" y="0" width="18" height="18" filterUnits="userSpaceOnUse" color-interpolation-filters="sRGB">
<feFlood flood-opacity="0" result="BackgroundImageFix"/>
<feColorMatrix in="SourceAlpha" type="matrix" values="0 0 0 0 0 0 0 0 0 0 0 0 0 0 0 0 0 0 127 0" result="hardAlpha"/>
<feOffset dy="4"/>
<feGaussianBlur stdDeviation="2"/>
<feComposite in2="hardAlpha" operator="out"/>
<feColorMatrix type="matrix" values="0 0 0 0 0 0 0 0 0 0 0 0 0 0 0 0 0 0 0.25 0"/>
<feBlend mode="normal" in2="BackgroundImageFix" result="effect1_dropShadow_111_297"/>
<feBlend mode="normal" in="SourceGraphic" in2="effect1_dropShadow_111_297" result="shape"/>
</filter>
</defs>
</svg>
