<svg width="17" height="17" viewBox="0 0 17 17" fill="none" xmlns="http://www.w3.org/2000/svg">
<path d="M8.49984 2.83329C6.99694 2.83329 5.5556 3.43031 4.4929 4.49302C3.43019 5.55573 2.83317 6.99707 2.83317 8.49996H4.95817C5.33389 8.49996 5.69423 8.64921 5.9599 8.91489C6.22558 9.18057 6.37484 9.5409 6.37484 9.91663V13.4583C6.37484 13.834 6.22558 14.1944 5.9599 14.46C5.69423 14.7257 5.33389 14.875 4.95817 14.875H2.83317C2.45745 14.875 2.09711 14.7257 1.83144 14.46C1.56576 14.1944 1.4165 13.834 1.4165 13.4583V8.49996C1.4165 4.58783 4.58771 1.41663 8.49984 1.41663C12.412 1.41663 15.5832 4.58783 15.5832 8.49996V13.4583C15.5832 13.834 15.4339 14.1944 15.1682 14.46C14.9026 14.7257 14.5422 14.875 14.1665 14.875H12.0415C11.6658 14.875 11.3054 14.7257 11.0398 14.46C10.7741 14.1944 10.6248 13.834 10.6248 13.4583V9.91663C10.6248 9.5409 10.7741 9.18057 11.0398 8.91489C11.3054 8.64921 11.6658 8.49996 12.0415 8.49996H14.1665C14.1665 6.99707 13.5695 5.55573 12.5068 4.49302C11.4441 3.43031 10.0027 2.83329 8.49984 2.83329ZM2.83317 9.91663V13.4583H4.95817V9.91663H2.83317ZM12.0415 9.91663V13.4583H14.1665V9.91663H12.0415Z" fill="#9BCDD2"/>
</svg>
