<svg width="18" height="18" viewBox="0 0 18 18" fill="none" xmlns="http://www.w3.org/2000/svg">
<path d="M12.9562 15.1875L15.5625 12.6L14.775 11.8125L12.9562 13.5937L12.225 12.8625L11.4375 13.6687L12.9562 15.1875ZM4.5 6.75H13.5V5.25H4.5V6.75ZM13.5 17.25C12.4625 17.25 11.578 16.8842 10.8465 16.1527C10.115 15.4212 9.7495 14.537 9.75 13.5C9.75 12.4625 10.1157 11.578 10.8472 10.8465C11.5787 10.115 12.463 9.7495 13.5 9.75C14.5375 9.75 15.422 10.1157 16.1535 10.8472C16.885 11.5787 17.2505 12.463 17.25 13.5C17.25 14.5375 16.8842 15.422 16.1527 16.1535C15.4212 16.885 14.537 17.2505 13.5 17.25ZM2.25 16.5V2.25H15.75V8.75625C15.5125 8.64375 15.2687 8.55 15.0187 8.475C14.7687 8.4 14.5125 8.34375 14.25 8.30625V3.75H3.75V14.2875H8.30625C8.36875 14.675 8.46575 15.0437 8.59725 15.3937C8.72875 15.7437 8.9005 16.075 9.1125 16.3875L9 16.5L7.875 15.375L6.75 16.5L5.625 15.375L4.5 16.5L3.375 15.375L2.25 16.5ZM4.5 12.75H8.30625C8.34375 12.4875 8.4 12.2312 8.475 11.9812C8.55 11.7312 8.64375 11.4875 8.75625 11.25H4.5V12.75ZM4.5 9.75H9.825C10.3 9.2875 10.8532 8.92175 11.4847 8.65275C12.1162 8.38375 12.788 8.2495 13.5 8.25H4.5V9.75Z" fill="#9BCDD2"/>
</svg>
