<svg width="10" height="12" viewBox="0 0 10 12" fill="none" xmlns="http://www.w3.org/2000/svg">
<path d="M5 5.7C4.5264 5.7 4.0722 5.54196 3.73731 5.26066C3.40242 4.97936 3.21429 4.59783 3.21429 4.2C3.21429 3.80218 3.40242 3.42064 3.73731 3.13934C4.0722 2.85804 4.5264 2.7 5 2.7C5.4736 2.7 5.9278 2.85804 6.26269 3.13934C6.59758 3.42064 6.78571 3.80218 6.78571 4.2C6.78571 4.39698 6.73953 4.59204 6.64979 4.77403C6.56004 4.95601 6.42851 5.12137 6.26269 5.26066C6.09687 5.39995 5.90002 5.51044 5.68336 5.58582C5.46671 5.6612 5.2345 5.7 5 5.7ZM5 0C3.67392 0 2.40215 0.442499 1.46447 1.23015C0.526784 2.0178 0 3.08609 0 4.2C0 7.35 5 12 5 12C5 12 10 7.35 10 4.2C10 3.08609 9.47322 2.0178 8.53553 1.23015C7.59785 0.442499 6.32608 0 5 0Z" fill="#9BCDD2"/>
</svg>
