<svg width="15" height="12" viewBox="0 0 15 12" fill="none" xmlns="http://www.w3.org/2000/svg">
<path fill-rule="evenodd" clip-rule="evenodd" d="M6 0H9C11.8282 0 13.2427 -8.9407e-08 14.121 0.879C14.754 1.51125 14.931 2.42175 14.9805 3.9375H0.0195C0.069 2.42175 0.246 1.51125 0.879 0.879C1.75725 -8.9407e-08 3.17175 0 6 0ZM9 12H6C3.17175 12 1.75725 12 0.879 11.121C-8.9407e-08 10.2427 0 8.82825 0 6C0 5.6685 7.00238e-08 5.3565 0.00150007 5.0625H14.9985C15 5.3565 15 5.6685 15 6C15 8.82825 15 10.2427 14.121 11.121C13.2427 12 11.8282 12 9 12ZM3 8.4375C2.85082 8.4375 2.70774 8.49676 2.60225 8.60225C2.49676 8.70774 2.4375 8.85082 2.4375 9C2.4375 9.14918 2.49676 9.29226 2.60225 9.39775C2.70774 9.50324 2.85082 9.5625 3 9.5625H6C6.14918 9.5625 6.29226 9.50324 6.39775 9.39775C6.50324 9.29226 6.5625 9.14918 6.5625 9C6.5625 8.85082 6.50324 8.70774 6.39775 8.60225C6.29226 8.49676 6.14918 8.4375 6 8.4375H3ZM7.875 8.4375C7.72582 8.4375 7.58274 8.49676 7.47725 8.60225C7.37176 8.70774 7.3125 8.85082 7.3125 9C7.3125 9.14918 7.37176 9.29226 7.47725 9.39775C7.58274 9.50324 7.72582 9.5625 7.875 9.5625H9C9.14918 9.5625 9.29226 9.50324 9.39775 9.39775C9.50324 9.29226 9.5625 9.14918 9.5625 9C9.5625 8.85082 9.50324 8.70774 9.39775 8.60225C9.29226 8.49676 9.14918 8.4375 9 8.4375H7.875Z" fill="#9BCDD2"/>
</svg>
