<svg width="38" height="38" viewBox="0 0 38 38" fill="none" xmlns="http://www.w3.org/2000/svg">
<g filter="url(#filter0_d_111_1880)">
<path d="M29.6281 4.36508C28.246 2.97597 26.5998 1.87459 24.7854 1.12516C22.971 0.37574 21.0248 -0.00672015 19.0603 8.93542e-05C10.8291 8.93542e-05 4.1206 6.67507 4.1206 14.865C4.1206 17.49 4.81407 20.04 6.11055 22.29L4 30L11.9146 27.93C14.1005 29.115 16.5578 29.745 19.0603 29.745C27.2915 29.745 34 23.07 34 14.88C34 10.9051 32.4472 7.17007 29.6281 4.36508ZM19.0603 27.225C16.8291 27.225 14.6432 26.625 12.7286 25.5L12.2764 25.23L7.57286 26.46L8.82412 21.9L8.52261 21.435C7.28303 19.4655 6.62483 17.1889 6.62312 14.865C6.62312 8.05507 12.201 2.50508 19.0452 2.50508C22.3618 2.50508 25.4824 3.79508 27.8191 6.13507C28.9761 7.28101 29.893 8.64406 30.5167 10.1452C31.1403 11.6463 31.4583 13.2557 31.4523 14.88C31.4824 21.69 25.9045 27.225 19.0603 27.225ZM25.8744 17.985C25.4975 17.805 23.6583 16.905 23.3266 16.77C22.9799 16.65 22.7387 16.59 22.4824 16.95C22.2261 17.325 21.5176 18.165 21.3065 18.405C21.0955 18.66 20.8693 18.69 20.4925 18.495C20.1156 18.315 18.9095 17.91 17.4925 16.65C16.3769 15.66 15.6382 14.445 15.4121 14.07C15.201 13.695 15.3819 13.5 15.5779 13.305C15.7437 13.14 15.9548 12.8701 16.1357 12.6601C16.3166 12.4501 16.392 12.2851 16.5126 12.0451C16.6332 11.7901 16.5729 11.5801 16.4824 11.4001C16.392 11.2201 15.6382 9.39006 15.3367 8.64006C15.0352 7.92007 14.7186 8.01007 14.4925 7.99507H13.7688C13.5126 7.99507 13.1206 8.08507 12.7739 8.46006C12.4422 8.83506 11.4774 9.73506 11.4774 11.5651C11.4774 13.3951 12.8191 15.165 13 15.405C13.1809 15.66 15.6382 19.41 19.3769 21.015C20.2663 21.405 20.9598 21.63 21.5025 21.795C22.392 22.08 23.206 22.035 23.8543 21.945C24.5779 21.84 26.0703 21.045 26.3719 20.175C26.6884 19.305 26.6884 18.57 26.5829 18.405C26.4774 18.24 26.2513 18.165 25.8744 17.985Z" fill="white"/>
</g>
<defs>
<filter id="filter0_d_111_1880" x="0" y="0" width="38" height="38" filterUnits="userSpaceOnUse" color-interpolation-filters="sRGB">
<feFlood flood-opacity="0" result="BackgroundImageFix"/>
<feColorMatrix in="SourceAlpha" type="matrix" values="0 0 0 0 0 0 0 0 0 0 0 0 0 0 0 0 0 0 127 0" result="hardAlpha"/>
<feOffset dy="4"/>
<feGaussianBlur stdDeviation="2"/>
<feComposite in2="hardAlpha" operator="out"/>
<feColorMatrix type="matrix" values="0 0 0 0 0 0 0 0 0 0 0 0 0 0 0 0 0 0 0.25 0"/>
<feBlend mode="normal" in2="BackgroundImageFix" result="effect1_dropShadow_111_1880"/>
<feBlend mode="normal" in="SourceGraphic" in2="effect1_dropShadow_111_1880" result="shape"/>
</filter>
</defs>
</svg>
