<svg width="30" height="30" viewBox="0 0 30 30" fill="none" xmlns="http://www.w3.org/2000/svg">
<path d="M23.746 30H6.24157C5.24675 30 4.29269 29.6049 3.58925 28.9015C2.88581 28.1982 2.49062 27.2443 2.49062 26.2496V13.7483H1.24031C0.983915 13.7462 0.734353 13.6654 0.525441 13.5168C0.316528 13.3682 0.158367 13.1589 0.0723902 12.9174C-0.0135869 12.6759 -0.0232226 12.4138 0.0447892 12.1666C0.112801 11.9194 0.255172 11.6991 0.452607 11.5356L14.2061 0.28439C14.4298 0.100518 14.7104 0 15 0C15.2896 0 15.5703 0.100518 15.794 0.28439L29.5474 11.5356C29.7457 11.6998 29.8884 11.9212 29.956 12.1696C30.0237 12.418 30.013 12.6812 29.9255 12.9233C29.838 13.1653 29.6778 13.3745 29.4669 13.5222C29.256 13.6698 29.0047 13.7488 28.7472 13.7483H27.4969V26.2496C27.4969 27.2443 27.1017 28.1982 26.3983 28.9015C25.6949 29.6049 24.7408 30 23.746 30ZM4.46612 11.4731C4.62943 11.5893 4.7624 11.7431 4.85379 11.9215C4.94518 12.1 4.99233 12.2977 4.99125 12.4982V26.2496C4.99125 26.5812 5.12298 26.8991 5.35746 27.1336C5.59194 27.368 5.90996 27.4997 6.24157 27.4997H23.746C24.0776 27.4997 24.3956 27.368 24.6301 27.1336C24.8646 26.8991 24.9963 26.5812 24.9963 26.2496V12.4982C24.9952 12.2977 25.0424 12.1 25.1338 11.9215C25.2251 11.7431 25.3581 11.5893 25.5214 11.4731L14.9938 2.85966L4.46612 11.4731Z" fill="#9BCDD2"/>
</svg>
