<svg width="30" height="30" viewBox="0 0 30 30" fill="none" xmlns="http://www.w3.org/2000/svg">
<path d="M27.2222 6.90072H22.1986C22.052 5.02083 21.2301 3.26718 19.8962 1.98855C18.5624 0.709915 16.8144 0 15 0C13.1856 0 11.4376 0.709915 10.1038 1.98855C8.76994 3.26718 7.94799 5.02083 7.80139 6.90072H2.77778C2.04107 6.90072 1.33453 7.20493 0.813592 7.74642C0.292658 8.28792 0 9.02234 0 9.78813V27.1126C0 27.8784 0.292658 28.6128 0.813592 29.1543C1.33453 29.6958 2.04107 30 2.77778 30H27.2222C27.9589 30 28.6655 29.6958 29.1864 29.1543C29.7073 28.6128 30 27.8784 30 27.1126V9.78813C30 9.02234 29.7073 8.28792 29.1864 7.74642C28.6655 7.20493 27.9589 6.90072 27.2222 6.90072ZM15 3.43583C15.9351 3.43592 16.8388 3.78624 17.5456 4.42259C18.2525 5.05893 18.715 5.93871 18.8486 6.90072H11.1514C11.285 5.93871 11.7475 5.05893 12.4544 4.42259C13.1612 3.78624 14.0649 3.43592 15 3.43583ZM26.6667 26.5351H3.33333V10.3656H7.77778V12.0981C7.77778 12.5575 7.95337 12.9982 8.26593 13.3231C8.57849 13.648 9.00242 13.8305 9.44444 13.8305C9.88647 13.8305 10.3104 13.648 10.623 13.3231C10.9355 12.9982 11.1111 12.5575 11.1111 12.0981V10.3656H18.8889V12.0981C18.8889 12.5575 19.0645 12.9982 19.377 13.3231C19.6896 13.648 20.1135 13.8305 20.5556 13.8305C20.9976 13.8305 21.4215 13.648 21.7341 13.3231C22.0466 12.9982 22.2222 12.5575 22.2222 12.0981V10.3656H26.6667V26.5351Z" fill="#9BCDD2"/>
</svg>
