<svg width="30" height="28" viewBox="0 0 30 28" fill="none" xmlns="http://www.w3.org/2000/svg">
<path d="M15 28C13.9209 27.999 12.8863 27.5401 12.1237 26.7241L3.15548 17.1552C1.71903 15.6575 0.71606 13.7499 0.266198 11.6599C-0.183664 9.56989 -0.0614228 7.38572 0.61834 5.36791C1.03605 3.98774 1.80374 2.75838 2.83606 1.81648C3.86839 0.87458 5.12491 0.257034 6.46598 0.0324828C8.13141 -0.100163 9.79984 0.243604 11.2997 1.02844C12.7996 1.81327 14.0768 3.01084 15 4.49801C15.9095 3.00325 17.1803 1.79908 18.6778 1.01298C20.1753 0.226878 21.8439 -0.111909 23.5069 0.0324828C24.8528 0.252053 26.1151 0.867348 27.1526 1.80958C28.1901 2.75181 28.9619 3.98383 29.3817 5.36791C30.0614 7.38572 30.1837 9.56989 29.7338 11.6599C29.2839 13.7499 28.281 15.6575 26.8445 17.1552L17.8763 26.7241C17.1137 27.5401 16.0791 27.999 15 28ZM7.45641 2.85968C7.24861 2.8448 7.04011 2.8448 6.8323 2.85968C5.97139 3.02348 5.17062 3.4417 4.52076 4.06696C3.87091 4.69221 3.39794 5.49949 3.15548 6.3973C2.65702 7.89136 2.5737 9.50761 2.91554 11.0511C3.25739 12.5947 4.00982 13.9996 5.08208 15.0964L14.0367 24.6799C14.1628 24.8157 14.3129 24.9236 14.4782 24.9972C14.6436 25.0708 14.8209 25.1087 15 25.1087C15.1791 25.1087 15.3564 25.0708 15.5218 24.9972C15.6871 24.9236 15.8372 24.8157 15.9633 24.6799L24.9179 15.0964C25.9902 13.9996 26.7426 12.5947 27.0845 11.0511C27.4263 9.50761 27.343 7.89136 26.8445 6.3973C26.5935 5.5037 26.1136 4.70293 25.4591 4.08548C24.8046 3.46802 24.0015 3.0585 23.1406 2.90318C21.9532 2.83715 20.7707 3.10985 19.7145 3.6933C18.6583 4.27675 17.7663 5.14995 17.1301 6.22332C16.8769 6.57797 16.5505 6.86541 16.1763 7.06326C15.8022 7.2611 15.3903 7.36403 14.9729 7.36403C14.5554 7.36403 14.1436 7.2611 13.7694 7.06326C13.3952 6.86541 13.0689 6.57797 12.8156 6.22332C12.2258 5.2588 11.435 4.45324 10.5053 3.86969C9.57552 3.28615 8.53201 2.94046 7.45641 2.85968Z" fill="#9BCDD2"/>
</svg>
